# xmcd
#
# Track frame offsets:
#	150
#	15604
#	33701
#	51505
#	65996
#	86693
#	102939
#	118487
#	131423
#	144128
#	160354
#	176946
#	191609
#	205474
#	225632
#	242544
#	260499
#	281781
#	299640
#	315253
#	328910
#
# Disc length: 4542 seconds
#
# Revision: 1
# Processed by: cddbd v1.5.2PL0 Copyright (c) Steve Scherf et al.
# Submitted via: audiograbber 1.83.01
#
DISCID=4f11bc15
DTITLE=Various Artist - Cream Of Country Volume 14
DYEAR=2011
DGENRE=Country
TTITLE0=Blake Shelton - All About Tonight
TTITLE1=Tim McGraw - Southern Voice
TTITLE2=Miranda Lambert - The House That Built Me
TTITLE3=Josh Turner - Why Don't We Just Dance (Album Version)
TTITLE4=Brad Paisley - American Saturday Night
TTITLE5=Reba McEntire - Consider Me Gone
TTITLE6=Clay Walker - She Won't Be Lonely Long
TTITLE7=Easton Corbin - A Little More Country Than That (Album Version)
TTITLE8=Alan Jackson - Hard Hat And A Hammer
TTITLE9=Lee Brice - Love Like Crazy
TTITLE10=Martina McBride - Wrong Baby Wrong Baby Wrong
TTITLE11=Jerrod Niemann - Lover, Lover
TTITLE12=Joe Nichols - Gimme That Girl (Album Version)
TTITLE13=Carrie Underwood - Temporary Home
TTITLE14=Billy Currington - That's How Country Boys Roll (Album Version)
TTITLE15=Kenny Chesney - Ain't Back Yet
TTITLE16=Kellie Pickler - Didn't You Know How Much I Loved You
TTITLE17=Gary Allan - Today (Album Version)
TTITLE18=Chris Young - The Man I Want To Be
TTITLE19=Steel Magnolia - Keep On Lovin' You
TTITLE20=Justin Moore - Backwoods
EXTD=
EXTT0=
EXTT1=
EXTT2=
EXTT3=
EXTT4=
EXTT5=
EXTT6=
EXTT7=
EXTT8=
EXTT9=
EXTT10=
EXTT11=
EXTT12=
EXTT13=
EXTT14=
EXTT15=
EXTT16=
EXTT17=
EXTT18=
EXTT19=
EXTT20=
PLAYORDER=
